<svg width="50" height="86" viewBox="0 0 50 86" fill="none" xmlns="http://www.w3.org/2000/svg">
<path d="M45.9817 4.17711C47.96 6.27365 47.9602 9.57542 45.9815 11.672L45.9667 11.6877L45.9516 11.7032L15.3918 42.9823L45.9516 74.2614L45.9517 74.2616C48.0161 76.3748 48.0161 79.7774 45.9517 81.8906L45.9513 81.891C43.8548 84.0362 40.4317 84.0364 38.3352 81.8909L38.3351 81.8908L4.04841 46.797L4.04815 46.7967C1.98403 44.6833 1.98385 41.2811 4.04828 39.1678L4.04841 39.1676L38.3351 4.07382L38.3503 4.05825L38.3658 4.04295C40.5004 1.93288 43.9236 1.99595 45.9817 4.17711ZM45.9817 4.17711L44.1634 5.89287M45.9817 4.17711L44.1634 5.89287M44.1634 5.89287C43.0671 4.73107 41.2584 4.69886 40.1233 5.8209L44.1634 9.95607C45.2328 8.82289 45.2328 7.02622 44.1634 5.89287Z" fill="black" stroke="white" stroke-width="5"/>
</svg>
